<svg width="563" height="40" viewBox="0 0 563 40" fill="none" xmlns="http://www.w3.org/2000/svg">
<path d="M292.04 11.912H299.072C302.456 11.912 304.568 13.616 304.568 16.808C304.568 20.096 302.456 21.872 299.024 21.872H294.272V29H292.04V11.912ZM294.272 19.928H299.072C301.112 19.928 302.336 18.824 302.336 16.832C302.336 14.84 301.208 13.856 298.952 13.856H294.272V19.928ZM309.881 21.176V27.056H319.961V29H307.649V11.912H319.745V13.856H309.881V19.232H318.977V21.176H309.881ZM336.283 23.552L336.907 29H334.651L334.147 24.44C333.931 22.424 333.067 21.632 331.075 21.632H325.795V29H323.563V11.912H331.483C334.723 11.912 336.715 13.664 336.715 16.424C336.715 18.608 335.515 20.192 333.667 20.696C335.227 21.008 336.115 21.944 336.283 23.552ZM325.795 19.688H330.715C333.043 19.688 334.435 18.56 334.435 16.64C334.435 14.84 333.235 13.856 331.099 13.856H325.795V19.688ZM358.684 27.872C357.508 28.88 355.9 29.384 353.812 29.384C351.724 29.384 350.116 28.88 348.964 27.872C347.788 26.888 347.212 25.448 347.212 23.6V11.912H349.444V23.672C349.444 26.048 350.908 27.392 353.812 27.392C356.716 27.392 358.18 26.048 358.18 23.672V11.912H360.412V23.6C360.412 25.448 359.836 26.888 358.684 27.872ZM366.717 11.912V27.056H375.621V29H364.485V11.912H366.717ZM373.692 11.912H387.348V13.856H381.636V29H379.404V13.856H373.692V11.912ZM392.452 21.176V27.056H402.532V29H390.22V11.912H402.316V13.856H392.452V19.232H401.548V21.176H392.452ZM418.854 23.552L419.478 29H417.222L416.718 24.44C416.502 22.424 415.638 21.632 413.646 21.632H408.366V29H406.134V11.912H414.054C417.294 11.912 419.286 13.664 419.286 16.424C419.286 18.608 418.086 20.192 416.238 20.696C417.798 21.008 418.686 21.944 418.854 23.552ZM408.366 19.688H413.286C415.614 19.688 417.006 18.56 417.006 16.64C417.006 14.84 415.806 13.856 413.67 13.856H408.366V19.688ZM425.545 29H423.313V11.912H425.545V29ZM437.178 29.408C434.802 29.408 432.858 28.568 431.37 26.888C429.858 25.232 429.114 23.072 429.114 20.456C429.114 17.864 429.858 15.728 431.37 14.072C432.858 12.416 434.802 11.6 437.178 11.6C439.578 11.6 441.522 12.416 443.034 14.072C444.522 15.728 445.266 17.84 445.266 20.456C445.266 23.096 444.522 25.256 443.034 26.912C441.522 28.568 439.578 29.408 437.178 29.408ZM433.002 25.52C434.082 26.792 435.474 27.416 437.202 27.416C438.93 27.416 440.322 26.792 441.402 25.52C442.458 24.272 442.986 22.592 442.986 20.456C442.986 18.368 442.458 16.712 441.378 15.464C440.298 14.216 438.906 13.592 437.202 13.592C435.474 13.592 434.082 14.216 433.002 15.464C431.922 16.712 431.394 18.368 431.394 20.456C431.394 22.568 431.922 24.248 433.002 25.52ZM461.557 23.552L462.181 29H459.925L459.421 24.44C459.205 22.424 458.341 21.632 456.349 21.632H451.069V29H448.837V11.912H456.757C459.997 11.912 461.989 13.664 461.989 16.424C461.989 18.608 460.789 20.192 458.941 20.696C460.501 21.008 461.389 21.944 461.557 23.552ZM451.069 19.688H455.989C458.317 19.688 459.709 18.56 459.709 16.64C459.709 14.84 458.509 13.856 456.373 13.856H451.069V19.688ZM468.249 29H466.017V11.912H468.249V29ZM481.022 29H478.79V11.912H481.022V29ZM496.567 25.856V11.912H498.679V29H496.135L487.207 15.128V29H485.095V11.912H487.567L496.567 25.856ZM514.455 11.912V13.856H504.999V19.232H512.823V21.176H504.999V29H502.767V11.912H514.455ZM523.92 29.408C521.544 29.408 519.6 28.568 518.112 26.888C516.6 25.232 515.856 23.072 515.856 20.456C515.856 17.864 516.6 15.728 518.112 14.072C519.6 12.416 521.544 11.6 523.92 11.6C526.32 11.6 528.264 12.416 529.776 14.072C531.264 15.728 532.008 17.84 532.008 20.456C532.008 23.096 531.264 25.256 529.776 26.912C528.264 28.568 526.32 29.408 523.92 29.408ZM519.744 25.52C520.824 26.792 522.216 27.416 523.944 27.416C525.672 27.416 527.064 26.792 528.144 25.52C529.2 24.272 529.728 22.592 529.728 20.456C529.728 18.368 529.2 16.712 528.12 15.464C527.04 14.216 525.648 13.592 523.944 13.592C522.216 13.592 520.824 14.216 519.744 15.464C518.664 16.712 518.136 18.368 518.136 20.456C518.136 22.568 518.664 24.248 519.744 25.52ZM538.291 29H535.579V26.576H538.291V29Z" fill="black"/>
<line y1="-0.5" x2="45.8944" y2="-0.5" transform="matrix(0.762347 -0.647169 0.706056 0.708156 20 31.1113)" stroke="black"/>
<line x1="54.7969" y1="1" x2="54.7969" y2="22" stroke="black"/>
<line x1="55.2969" y1="0.5" x2="30.2969" y2="0.499998" stroke="black"/>
<line x1="0.00585937" y1="38.6162" x2="546.006" y2="38.6162" stroke="black"/>
</svg>
