<svg width="549" height="40" viewBox="0 0 549 40" fill="none" xmlns="http://www.w3.org/2000/svg">
<path d="M400.67 29.408C398.294 29.408 396.422 28.568 395.03 26.912C393.638 25.256 392.942 23.096 392.942 20.456C392.942 17.816 393.638 15.68 395.054 14.048C396.446 12.416 398.318 11.6 400.646 11.6C402.446 11.6 404.006 12.104 405.326 13.088C406.646 14.072 407.414 15.416 407.678 17.072H405.398C404.894 14.84 403.142 13.592 400.742 13.592C397.286 13.592 395.222 16.16 395.222 20.456C395.222 24.752 397.286 27.416 400.742 27.416C403.454 27.416 405.278 25.832 405.686 22.784H407.894C407.318 26.912 404.63 29.408 400.67 29.408ZM418.584 29.408C416.208 29.408 414.264 28.568 412.776 26.888C411.264 25.232 410.52 23.072 410.52 20.456C410.52 17.864 411.264 15.728 412.776 14.072C414.264 12.416 416.208 11.6 418.584 11.6C420.984 11.6 422.928 12.416 424.44 14.072C425.928 15.728 426.672 17.84 426.672 20.456C426.672 23.096 425.928 25.256 424.44 26.912C422.928 28.568 420.984 29.408 418.584 29.408ZM414.408 25.52C415.488 26.792 416.88 27.416 418.608 27.416C420.336 27.416 421.728 26.792 422.808 25.52C423.864 24.272 424.392 22.592 424.392 20.456C424.392 18.368 423.864 16.712 422.784 15.464C421.704 14.216 420.312 13.592 418.608 13.592C416.88 13.592 415.488 14.216 414.408 15.464C413.328 16.712 412.8 18.368 412.8 20.456C412.8 22.568 413.328 24.248 414.408 25.52ZM441.715 25.856V11.912H443.827V29H441.283L432.355 15.128V29H430.243V11.912H432.715L441.715 25.856ZM446.715 11.912H460.371V13.856H454.659V29H452.427V13.856H446.715V11.912ZM475.277 29H472.805L471.005 23.984H463.757L461.909 29H459.533L466.157 11.912H468.677L475.277 29ZM466.853 15.56L464.477 22.04H470.309L467.981 15.56L467.429 13.784L466.853 15.56ZM474.442 11.912H488.098V13.856H482.386V29H480.154V13.856H474.442V11.912ZM489.77 11.912H503.426V13.856H497.714V29H495.482V13.856H489.77V11.912ZM518.331 29H515.859L514.059 23.984H506.811L504.963 29H502.587L509.211 11.912H511.731L518.331 29ZM509.907 15.56L507.531 22.04H513.363L511.035 15.56L510.483 13.784L509.907 15.56ZM527.584 29.408C525.208 29.408 523.336 28.568 521.944 26.912C520.552 25.256 519.856 23.096 519.856 20.456C519.856 17.816 520.552 15.68 521.968 14.048C523.36 12.416 525.232 11.6 527.56 11.6C529.36 11.6 530.92 12.104 532.24 13.088C533.56 14.072 534.328 15.416 534.592 17.072H532.312C531.808 14.84 530.056 13.592 527.656 13.592C524.2 13.592 522.136 16.16 522.136 20.456C522.136 24.752 524.2 27.416 527.656 27.416C530.368 27.416 532.192 25.832 532.6 22.784H534.808C534.232 26.912 531.544 29.408 527.584 29.408ZM540.17 29H537.938V11.912H540.17V29ZM546.955 29H544.243V26.576H546.955V29Z" fill="black"/>
<line y1="-0.5" x2="45.8944" y2="-0.5" transform="matrix(0.762347 -0.647169 0.706056 0.708156 19.9941 31.1113)" stroke="black"/>
<line x1="54.791" y1="1" x2="54.791" y2="22" stroke="black"/>
<line x1="55.291" y1="0.5" x2="30.291" y2="0.499998" stroke="black"/>
<line y1="38.6162" x2="546" y2="38.6162" stroke="black"/>
</svg>
